<?xml version="1.0" encoding="UTF-8" standalone="no"?>
<svg
   width="200"
   height="200"
   viewBox="0 0 200 200"
   version="1.1"
   id="svg15"
   sodipodi:docname="logo.svg"
   xml:space="preserve"
   inkscape:version="1.4.2 (2aeb623e1d, 2025-05-12)"
   xmlns:inkscape="http://www.inkscape.org/namespaces/inkscape"
   xmlns:sodipodi="http://sodipodi.sourceforge.net/DTD/sodipodi-0.dtd"
   xmlns:xlink="http://www.w3.org/1999/xlink"
   xmlns="http://www.w3.org/2000/svg"
   xmlns:svg="http://www.w3.org/2000/svg"><defs
     id="defs15"><linearGradient
       id="linearGradient68"
       inkscape:collect="always"><stop
         style="stop-color:#000000;stop-opacity:1;"
         offset="0.7550329"
         id="stop68" /><stop
         style="stop-color:#000000;stop-opacity:0;"
         offset="1"
         id="stop69" /></linearGradient><inkscape:path-effect
       effect="powerstroke"
       message=""
       id="path-effect27"
       is_visible="true"
       lpeversion="1.3"
       scale_width="1"
       interpolator_type="CentripetalCatmullRom"
       interpolator_beta="0.75"
       start_linecap_type="round"
       end_linecap_type="round"
       offset_points="18.660169,1.867995"
       linejoin_type="spiro"
       miter_limit="4"
       not_jump="true"
       sort_points="true" /><inkscape:path-effect
       effect="simplify"
       id="path-effect26"
       is_visible="true"
       lpeversion="1.3"
       threshold="0.012"
       steps="1"
       smooth_angles="0"
       helper_size="0"
       simplify_individual_paths="false"
       simplify_just_coalesce="false"
       step="1" /><inkscape:path-effect
       effect="powerstroke"
       message=""
       id="path-effect24"
       is_visible="true"
       lpeversion="1.3"
       scale_width="1"
       interpolator_type="CentripetalCatmullRom"
       interpolator_beta="0.75"
       start_linecap_type="round"
       end_linecap_type="round"
       offset_points="11.58846,5.2834878"
       linejoin_type="spiro"
       miter_limit="4"
       not_jump="true"
       sort_points="true" /><inkscape:path-effect
       effect="simplify"
       id="path-effect23"
       is_visible="true"
       lpeversion="1.3"
       threshold="0.012"
       steps="1"
       smooth_angles="0"
       helper_size="0"
       simplify_individual_paths="false"
       simplify_just_coalesce="false"
       step="1" /><linearGradient
       inkscape:collect="always"
       xlink:href="#linearGradient68"
       id="linearGradient69"
       x1="43.142059"
       y1="117.5556"
       x2="91.40078"
       y2="117.5556"
       gradientUnits="userSpaceOnUse" /><linearGradient
       inkscape:collect="always"
       xlink:href="#linearGradient68"
       id="linearGradient70"
       gradientUnits="userSpaceOnUse"
       x1="43.142059"
       y1="117.5556"
       x2="91.40078"
       y2="117.5556"
       gradientTransform="matrix(-0.95936929,-0.09243525,-0.0925138,0.9585547,202.00111,12.533912)" /></defs><sodipodi:namedview
     id="namedview15"
     pagecolor="#ffffff"
     bordercolor="#000000"
     borderopacity="0.25"
     inkscape:showpageshadow="2"
     inkscape:pageopacity="0.0"
     inkscape:pagecheckerboard="0"
     inkscape:deskcolor="#d1d1d1"
     showgrid="false"
     inkscape:zoom="2.8390337"
     inkscape:cx="102.49966"
     inkscape:cy="100.56238"
     inkscape:window-width="1856"
     inkscape:window-height="1011"
     inkscape:window-x="0"
     inkscape:window-y="0"
     inkscape:window-maximized="1"
     inkscape:current-layer="g89" /><g
     fill="none"
     fill-rule="evenodd"
     id="g15"
     style="display:inline"><path
       style="display:inline;fill:#e6e6e6;fill-opacity:1;stroke:#000000;stroke-width:0.377953;stroke-linejoin:bevel;stroke-dasharray:none;stroke-dashoffset:0;stroke-opacity:1;paint-order:stroke fill markers"
       d="m 52.552927,119.80074 c 0,0 30.220009,-0.45661 45.703612,-0.49812 15.483601,-0.0415 47.198011,0.24906 47.198011,0.24906 l 12.4533,36.11457 -31.13325,39.6015 L 85.678705,194.02242 49.8132,133.99751 Z"
       id="path70"
       sodipodi:nodetypes="cscccccc"
       inkscape:label="camisa" /><g
       id="g18"
       inkscape:label="head"
       style="display:inline"
       sodipodi:insensitive="true"><path
         style="display:inline;fill:#99eeff;fill-opacity:1;stroke-width:0.961774"
         d="M 70.160315,15.142699 C 71.408106,13.416483 78.904617,9.3753744 84.710087,8.2941253 90.985272,7.1253933 96.134475,7.1455459 99.265091,7.3055892 L 99.009388,39.35218 85.944735,24.489613 c 0,0 -19.028003,-4.859684 -15.78442,-9.346914 z"
         id="path21"
         sodipodi:nodetypes="sscccs"
         inkscape:label="up0" /><path
         style="display:inline;fill:#4de1ff;fill-opacity:1;stroke-width:0.961774"
         d="M 128.32641,15.142699 C 127.07862,13.416483 119.58211,9.3753744 113.77664,8.2941255 107.50145,7.1253929 102.35225,7.145546 99.221632,7.3055893 L 98.792403,39.812957 112.54199,24.489613 c 0,0 19.028,-4.859684 15.78442,-9.346914 z"
         id="path22"
         sodipodi:nodetypes="sscccs"
         inkscape:label="up1" /><path
         d="M 47.980469,4.9863281 C 45.708758,6.417965 44.70986,12.644128 44.381472,16.906812 c -0.499811,6.487864 2.442747,19.829516 2.442747,19.829516 0,0 -3.577234,8.907457 -4.573328,14.241767 -0.996094,5.33431 -1.955866,12.886093 -1.403235,17.764092 0.625773,5.523611 1.544698,10.256491 2.842561,14.450686 1.297862,4.194195 2.974662,7.849705 5.116184,11.218577 2.141523,3.368873 4.747767,6.45111 7.904519,9.49875 3.156752,3.04765 6.909907,5.99989 11.207563,9.29121 3.334728,2.55387 11.663786,5.94514 18.66103,7.45261 6.997244,1.50747 12.662674,1.13114 12.662674,1.13114 L 98.800781,35.927734 c 0,0 -5.844462,-10.469877 -11.623432,-15.586212 C 81.39838,15.225187 68.424514,8.1903527 62.521377,6.6930813 56.61824,5.1958099 50.947926,3.1162307 47.980469,4.9863281 Z"
         style="fill:#e6eef2;fill-opacity:1"
         id="path17"
         sodipodi:nodetypes="ssczsssssscczzs"
         inkscape:label="0" /><path
         d="m 149.61658,5.0042447 c 2.27171,1.43163 3.27061,7.6578003 3.599,11.9204803 0.49981,6.48786 -2.44275,19.829518 -2.44275,19.829518 0,0 3.57724,8.907457 4.57333,14.241767 0.9961,5.33431 1.95587,12.886093 1.40324,17.764092 -0.62578,5.523611 -1.5447,10.256491 -2.84256,14.450686 -1.29787,4.194195 -2.97467,7.849705 -5.11619,11.218577 -2.14152,3.368873 -4.74777,6.451115 -7.90452,9.498755 -3.15675,3.04765 -6.9099,5.99989 -11.20756,9.29121 -3.33473,2.55387 -11.66379,5.94514 -18.66103,7.45261 -6.99724,1.50747 -12.662674,1.13114 -12.662674,1.13114 l 0.441406,-85.857431 c 0,0 5.844458,-10.469874 11.623428,-15.586214 5.77897,-5.11633 18.75284,-12.1511703 24.65598,-13.6484403 5.90313,-1.49727 11.57345,-3.57685 14.5409,-1.70675 z"
         style="fill:#c4d6e0;fill-opacity:1"
         id="path18"
         sodipodi:nodetypes="ssczsssssscczzs"
         inkscape:label="1" /><path
         d="m 73.354825,60.682497 c -0.352177,0 -0.726366,-0.04568 -1.078545,-0.114193 -0.354039,-0.07142 -0.700521,-0.178514 -1.034523,-0.319738 -0.330168,-0.13703 -0.638323,-0.319738 -0.948681,-0.525285 -0.286143,-0.205546 -0.570086,-0.456768 -0.836423,-0.707992 -0.239921,-0.274062 -0.482042,-0.548123 -0.680142,-0.867862 -0.1981,-0.319739 -0.374191,-0.639478 -0.508457,-0.982054 -0.270177,-0.697227 -0.411309,-1.441035 -0.41601,-2.192493 0,-0.365416 0.04403,-0.75367 0.110055,-1.119086 0.06604,-0.365415 0.176089,-0.707993 0.305955,-1.073409 0.134266,-0.342576 0.310357,-0.662315 0.508457,-0.982054 0.1981,-0.296899 0.440221,-0.5938 0.680142,-0.867861 0.266337,-0.251223 0.55028,-0.502446 0.836423,-0.707993 0.310358,-0.205545 0.618513,-0.388254 0.948681,-0.525285 0.327966,-0.137031 0.682344,-0.251223 1.034523,-0.319738 0.704356,-0.159869 1.430723,-0.159869 2.157091,0 0.349976,0.06851 0.704355,0.182707 1.034523,0.319738 0.327966,0.137031 0.638324,0.31974 0.946479,0.525285 0.286145,0.205547 0.570087,0.45677 0.836421,0.707993 0.242124,0.274061 0.484246,0.570962 0.682347,0.867861 0.198098,0.319739 0.374189,0.639478 0.506255,0.982054 0.132068,0.365416 0.242122,0.707994 0.308155,1.073409 0.06384,0.365416 0.110057,0.75367 0.110057,1.119086 0,1.507339 -0.596503,2.99184 -1.606814,4.042409 -0.266334,0.251224 -0.550276,0.502446 -0.836421,0.707992 -0.308155,0.205547 -0.618513,0.388255 -0.946479,0.525285 -0.670989,0.284012 -1.388401,0.431336 -2.113069,0.433931 m 51.859435,-0.438992 c -1.47599,0 -2.90724,-0.58782 -3.96055,-1.58929 -0.24837,-0.261023 -0.47919,-0.537363 -0.69103,-0.827302 -0.20127,-0.304795 -0.3802,-0.60959 -0.5166,-0.936158 -0.27449,-0.664641 -0.41789,-1.373687 -0.42267,-2.090024 0,-1.436894 0.60382,-2.830244 1.6303,-3.853486 0.2706,-0.239482 0.55908,-0.478964 0.8498,-0.674903 0.31532,-0.19594 0.62841,-0.37011 0.96387,-0.500737 0.3332,-0.130625 0.69326,-0.239481 1.05107,-0.304793 0.71564,-0.152399 1.47598,-0.152399 2.19162,0 0.35557,0.06531 0.71562,0.174168 1.05106,0.304793 0.33322,0.130627 0.64854,0.304797 0.96163,0.500737 0.29073,0.195939 0.57921,0.435421 0.84982,0.674903 1.02647,1.023242 1.63251,2.416592 1.63251,3.853486 0,0.348337 -0.047,0.718445 -0.11181,1.066783 -0.0671,0.348338 -0.17892,0.696675 -0.31308,1.023241 -0.15655,0.326568 -0.31309,0.631363 -0.51435,0.936158 -0.20127,0.283025 -0.44728,0.566049 -0.69327,0.827302 -0.27061,0.239483 -0.55909,0.478964 -0.84982,0.674904 -0.31309,0.195939 -0.62841,0.370109 -0.96163,0.500736 -0.68172,0.270738 -1.41061,0.411176 -2.14687,0.41365"
         fill="#000000"
         id="path15"
         style="display:inline;fill:#17444d;fill-opacity:1;stroke-width:2.67535"
         sodipodi:nodetypes="cccccsccscccccccccccccscccccccccccccccccsccccccc"
         inkscape:label="eyes" /><path
         style="display:inline;fill:#ff9933;fill-opacity:1"
         d="m 99.13742,98.360931 c 0,0 2.24549,0.176116 3.39024,-0.792523 1.14476,-0.96864 4.18276,-5.239459 4.18276,-5.239459 0,0 8.51874,-12.806358 11.31547,-19.548905 0.51996,-1.253552 0.61189,-1.530022 0.38078,-2.857464 -0.22036,-1.265645 -1.8882,-2.945943 -2.75835,-3.834954 -3.931,-4.016237 -7.76841,-6.348498 -7.76841,-6.348498 0,0 -4.50374,-2.896256 -6.27304,-3.659453 -1.76931,-0.763197 -2.381392,-0.514995 -2.381392,-0.514995 z"
         id="path20"
         sodipodi:nodetypes="cscsssczcc"
         inkscape:label="pico1" /><path
         style="display:inline;fill:#ffbb33;fill-opacity:1"
         d="m 99.32957,98.360931 c 0,0 -2.245482,0.176116 -3.390238,-0.792523 -1.144756,-0.96864 -4.182761,-5.239459 -4.182761,-5.239459 0,0 -8.518736,-12.806358 -11.31547,-19.548905 -0.51996,-1.253552 -0.611886,-1.530022 -0.380773,-2.857464 0.220354,-1.265645 1.888197,-2.945943 2.758343,-3.834954 3.931009,-4.016237 7.768413,-6.348498 7.768413,-6.348498 0,0 4.503738,-2.896256 6.273042,-3.659453 1.769304,-0.763197 2.381386,-0.514995 2.381386,-0.514995 z"
         id="path19"
         sodipodi:nodetypes="cscsssczcc"
         inkscape:label="pico0" /></g><g
       id="g72"
       inkscape:label="camisa"><path
         style="display:inline;fill:#aa0000;fill-opacity:1;stroke:#000000;stroke-width:0.377953;stroke-linejoin:bevel;stroke-dasharray:none;stroke-dashoffset:0;stroke-opacity:1;paint-order:stroke fill markers"
         d="m 92.372978,144.85562 -4.22679,35.31131 14.469002,16.59521 12.95144,-13.82316 -10.77211,-38.04483 z"
         id="path72" /><path
         style="display:inline;fill:#aa0000;fill-opacity:1;stroke:#000000;stroke-width:0.377953;stroke-linejoin:bevel;stroke-dasharray:none;stroke-dashoffset:0;stroke-opacity:1;paint-order:stroke fill markers"
         d="m 92.372978,145.03174 12.416192,0.0881 6.9566,-10.3028 -0.70447,-9.6864 -24.3921,-0.17611 -1.673105,7.573 z"
         id="path71" /><path
         style="fill:#ffffff;fill-opacity:1;stroke-width:0.37795276;stroke-dasharray:none;stroke:url(#linearGradient69);stroke-opacity:1;paint-order:stroke fill markers;stroke-linejoin:bevel;stroke-dashoffset:0"
         d="m 43.3246,114.29945 5.283488,-19.725019 42.620134,26.241319 -8.805813,19.72502 z"
         id="path48" /><path
         style="display:inline;fill:#ffffff;fill-opacity:1;stroke:url(#linearGradient70);stroke-width:0.364124;stroke-linejoin:bevel;stroke-dasharray:none;stroke-dashoffset:0;stroke-opacity:1;paint-order:stroke fill markers"
         d="m 149.86254,118.09146 -3.24398,-19.395886 -43.31614,21.214136 6.62319,19.72148 z"
         id="path48-3" /></g><g
       id="g80"><path
         style="display:inline;fill:#484537;fill-opacity:1;stroke:#000000;stroke-width:0.377953;stroke-linejoin:bevel;stroke-dasharray:none;stroke-dashoffset:0;stroke-opacity:1;paint-order:stroke fill markers"
         d="m 40.50674,118.52624 c 0,0 -12.838777,16.55762 -15.498231,23.7757 -5.193396,14.09551 -8.453581,41.73955 -8.453581,41.73955 l -0.08806,15.4542 123.545562,-0.3082 c 0,0 -37.68888,-31.05517 -53.275172,-47.1111 C 71.150968,136.02046 46.49469,102.8519 46.49469,102.8519 Z"
         id="path74"
         sodipodi:nodetypes="cscccscc" /><path
         style="fill:#484537;fill-opacity:1;stroke:#000000;stroke-width:0.377953;stroke-linejoin:bevel;stroke-dasharray:none;stroke-dashoffset:0;stroke-opacity:1;paint-order:stroke fill markers"
         d="m 46.670809,102.67578 -6.516302,16.29076 0.880581,6.5163 21.6623,-1.32088 z"
         id="path73"
         sodipodi:nodetypes="ccccc" /><path
         style="fill:#484537;fill-opacity:1;stroke:#000000;stroke-width:0.377953;stroke-linejoin:bevel;stroke-dasharray:none;stroke-dashoffset:0;stroke-opacity:1;paint-order:stroke fill markers"
         d="m 38.217228,140.18854 9.510278,36.8083 0.176117,22.01453"
         id="path75" /><path
         style="fill:#484537;fill-opacity:1;stroke:#000000;stroke-width:0.377953;stroke-linejoin:bevel;stroke-dasharray:none;stroke-dashoffset:0;stroke-opacity:1;paint-order:stroke fill markers"
         d="m 55.790785,116.93649 -11.955169,16.18929 84.059774,57.90784"
         id="path76" /></g><g
       id="g83"
       transform="matrix(-1.0000287,0,0,0.97688359,194.76891,4.6142352)"><path
         style="display:inline;fill:#484537;fill-opacity:1;stroke:#000000;stroke-width:0.377953;stroke-linejoin:bevel;stroke-dasharray:none;stroke-dashoffset:0;stroke-opacity:1;paint-order:stroke fill markers"
         d="m 40.50674,118.52624 c 0,0 -12.838777,16.55762 -15.498231,23.7757 -5.193396,14.09551 -8.453581,41.73955 -8.453581,41.73955 l 0.09324,15.34859 104.344256,0.15801 c 0,0 -3.37445,-10.67396 -7.53842,-15.27441 C 104.37043,174.23796 82.498719,153.92346 78.636143,150.09327 62.753913,134.34418 46.49469,102.8519 46.49469,102.8519 Z"
         id="path80"
         sodipodi:nodetypes="cscccsscc" /><path
         style="fill:#484537;fill-opacity:1;stroke:#000000;stroke-width:0.377953;stroke-linejoin:bevel;stroke-dasharray:none;stroke-dashoffset:0;stroke-opacity:1;paint-order:stroke fill markers"
         d="m 46.670809,102.67578 -6.516302,16.29076 0.880581,6.5163 17.611743,1.74394 z"
         id="path81"
         sodipodi:nodetypes="ccccc" /><path
         style="fill:#484537;fill-opacity:1;stroke:#000000;stroke-width:0.377953;stroke-linejoin:bevel;stroke-dasharray:none;stroke-dashoffset:0;stroke-opacity:1;paint-order:stroke fill markers"
         d="m 38.217228,140.18854 9.510278,36.8083 0.176117,22.01453"
         id="path82" /><path
         style="fill:#484537;fill-opacity:1;stroke:#000000;stroke-width:0.382393;stroke-linecap:butt;stroke-linejoin:bevel;stroke-dasharray:none;stroke-dashoffset:0;stroke-opacity:1;paint-order:markers stroke fill"
         d="m 54.578803,117.32869 -10.214456,19.65093 70.568103,49.03719 z"
         id="path83"
         sodipodi:nodetypes="cccc" /></g><g
       id="g89"><path
         style="fill:#e6e6e6;fill-opacity:1;stroke:#000000;stroke-width:0.377953;stroke-linecap:butt;stroke-linejoin:bevel;stroke-dasharray:none;stroke-dashoffset:0;stroke-opacity:1;paint-order:markers stroke fill"
         d="m 42.590286,113.07597 -2.988792,7.47198 54.047323,53.79825 4.98132,-0.24906 55.541723,-54.79452 -2.2416,-5.72852 -53.798255,59.27771 -4.234122,0.24906 z"
         id="path84" /><path
         style="fill:#1a1a1a;fill-opacity:1;stroke:#000000;stroke-width:0.377953;stroke-linecap:butt;stroke-linejoin:bevel;stroke-dasharray:none;stroke-dashoffset:0;stroke-opacity:1;paint-order:markers stroke fill"
         d="m 93.150685,174.22167 -1.992528,1.99253 -6.475716,0.12453 -0.373599,22.91407 26.276468,-0.62266 -1.61893,-22.78954 -7.59652,0.12453 -2.241591,-1.99253 z"
         id="path85" /></g></g></svg>
